<svg width="1440" height="286" viewBox="0 0 1440 286" fill="none" xmlns="http://www.w3.org/2000/svg">
<g clip-path="url(#clip0)">
<path fill-rule="evenodd" clip-rule="evenodd" d="M634.075 70.7638C902.216 -21.3249 1216.85 -8.35139 1440 25.841V514.668C1234.85 403.964 879.015 276.45 437.696 291.403C73.0147 303.761 -118.592 296.892 -210 286.042V190.946C-33.0015 198.704 307.05 183.076 634.075 70.7638Z" fill="#FF6C6C" fill-opacity="0.35"/>
<path fill-rule="evenodd" clip-rule="evenodd" d="M-210 266.367C-144.998 283.63 42.7809 305.338 478.987 311.417C899.631 317.28 1236.52 448.592 1440 565.095V83.9972C1223.43 45.5531 937.029 27.3805 685.822 100.418C321.25 206.416 -53.3603 195.274 -210 174.995V266.367Z" fill="#FF6C6C" fill-opacity="0.59"/>
<path fill-rule="evenodd" clip-rule="evenodd" d="M-210 298.984C-126.429 316.256 64.7309 336.901 451.096 348.332C894.706 361.455 1242.9 512.722 1440 636.559V140.834C1221.54 96.0025 923.21 68.8552 661.249 140.592C313.76 235.751 -41.097 225.311 -210 204.579V298.984Z" fill="#FF6C6C"/>
</g>
<defs>
<clipPath id="clip0">
<rect x="-210" width="1650" height="637" fill="white"/>
</clipPath>
</defs>
</svg>
