<?xml version="1.0" encoding="utf-8"?>
<!-- Generator: Adobe Illustrator 16.0.0, SVG Export Plug-In . SVG Version: 6.00 Build 0)  -->
<!DOCTYPE svg PUBLIC "-//W3C//DTD SVG 1.1//EN" "http://www.w3.org/Graphics/SVG/1.1/DTD/svg11.dtd">
<svg version="1.1" id="a594ac37-6d44-4297-8862-1cbd9c01c0b7"
	 xmlns="http://www.w3.org/2000/svg" xmlns:xlink="http://www.w3.org/1999/xlink" x="0px" y="0px" width="1152.597px"
	 height="1063.5px" viewBox="0 -208.5 1152.597 1063.5" enable-background="new 0 -208.5 1152.597 1063.5" xml:space="preserve">
<circle fill="#438BCD" cx="1039.896" cy="387.206" r="111.879"/>
<circle fill="#F57E7E" cx="683.42" cy="-38.287" r="168.34"/>
<title>code review</title>
<path fill="#F2F2F2" d="M544.864,755.938C302.465,737.491,13.394,549.672,28.111,356.28C42.828,162.89,322.797-17.142,565.196,1.305
	C807.595,19.751,947.128,381.167,932.41,574.559C917.693,767.949,787.263,774.385,544.864,755.938z"/>
<ellipse fill="#3F3D56" cx="565.193" cy="756" rx="506" ry="31"/>
<ellipse opacity="0.1" enable-background="new    " cx="565.193" cy="755.5" rx="431" ry="20.5"/>
<ellipse fill="#3F3D56" cx="212.193" cy="836.5" rx="212.193" ry="18.5"/>
<ellipse opacity="0.1" enable-background="new    " cx="212.193" cy="836.202" rx="180.742" ry="12.234"/>
<rect x="196.193" y="162" fill="#3F3D56" width="752" height="590"/>
<path fill="#F2F2F2" d="M563.638,242.629H378.121c-1.244,0.004-2.255-1.001-2.259-2.244c-0.004-1.244,1.001-2.254,2.245-2.258
	c0.004,0,0.009,0,0.014,0h185.517c1.244,0.004,2.249,1.015,2.245,2.258C565.879,241.623,564.876,242.625,563.638,242.629z"/>
<path fill="#F2F2F2" d="M766.717,267.395H474.932c-1.243,0-2.251-1.008-2.251-2.251c0-1.244,1.008-2.251,2.251-2.251l0,0h291.785
	c1.243,0,2.252,1.008,2.252,2.251C768.969,266.387,767.96,267.395,766.717,267.395z"/>
<path fill="#F2F2F2" d="M564.539,292.161H379.021c-1.244,0-2.251-1.008-2.251-2.251c0-1.244,1.008-2.251,2.251-2.251h185.518
	c1.243,0,2.251,1.008,2.251,2.251C566.79,291.152,565.782,292.161,564.539,292.161z"/>
<path fill="#F2F2F2" d="M766.717,292.611H581.199c-1.243,0-2.251-1.008-2.251-2.251c0-1.243,1.008-2.251,2.251-2.251h185.518
	c1.243,0,2.252,1.008,2.252,2.251C768.969,291.603,767.96,292.611,766.717,292.611z"/>
<path fill="#F2F2F2" d="M564.989,316.927H379.471c-1.243,0-2.251-1.009-2.251-2.252s1.008-2.251,2.251-2.251h185.518
	c1.243,0,2.251,1.008,2.251,2.251S566.232,316.927,564.989,316.927z"/>
<path fill="#F2F2F2" d="M565.439,341.692H379.921c-1.243,0-2.251-1.009-2.251-2.252s1.008-2.251,2.251-2.251h185.518
	c1.243,0,2.251,1.008,2.251,2.251S566.683,341.692,565.439,341.692z"/>
<path fill="#F2F2F2" d="M649.643,243.08h-53.134c-1.243,0-2.251-1.008-2.251-2.251c0-1.244,1.008-2.251,2.251-2.251h53.134
	c1.243,0,2.251,1.008,2.251,2.251C651.894,242.071,650.886,243.08,649.643,243.08z"/>
<path fill="#F2F2F2" d="M649.643,316.927h-53.134c-1.243,0-2.251-1.009-2.251-2.252s1.008-2.251,2.251-2.251h53.134
	c1.243,0,2.251,1.008,2.251,2.251S650.886,316.927,649.643,316.927z"/>
<path fill="#F2F2F2" d="M649.643,341.242h-53.134c-1.243,0.003-2.254-1.002-2.258-2.245s1-2.254,2.244-2.258
	c0.004,0,0.009,0,0.014,0h53.134c1.243-0.004,2.255,1.001,2.259,2.244s-1.001,2.255-2.244,2.259
	C649.652,341.242,649.647,341.242,649.643,341.242z"/>
<path fill="#F2F2F2" d="M738.8,341.242h-53.135c-1.243-0.004-2.248-1.016-2.244-2.259c0.004-1.238,1.007-2.24,2.244-2.244H738.8
	c1.243-0.004,2.254,1.001,2.258,2.244s-1.001,2.255-2.244,2.259C738.809,341.242,738.804,341.242,738.8,341.242z"/>
<path fill="#F2F2F2" d="M430.804,267.395H377.67c-1.243,0-2.251-1.008-2.251-2.251c0-1.244,1.008-2.251,2.251-2.251l0,0h53.134
	c1.243,0,2.252,1.008,2.252,2.251C433.056,266.387,432.047,267.395,430.804,267.395z"/>
<path fill="#F2F2F2" d="M563.863,607.36H378.346c-1.244,0-2.251-1.008-2.251-2.251c0-1.244,1.008-2.252,2.251-2.252l0,0h185.518
	c1.243,0,2.251,1.008,2.251,2.252C566.114,606.353,565.106,607.36,563.863,607.36z"/>
<path fill="#F2F2F2" d="M562.963,656.892H377.445c-1.243,0-2.251-1.008-2.251-2.251s1.008-2.252,2.251-2.252h185.518
	c1.243,0,2.251,1.009,2.251,2.252S564.206,656.892,562.963,656.892z"/>
<path fill="#F2F2F2" d="M563.413,681.658H377.896c-1.244,0-2.251-1.009-2.251-2.252s1.008-2.251,2.251-2.251l0,0h185.518
	c1.243,0,2.251,1.008,2.251,2.251S564.656,681.658,563.413,681.658z"/>
<path fill="#F2F2F2" d="M642.663,657.342h-53.134c-1.243,0-2.251-1.008-2.251-2.251s1.008-2.251,2.251-2.251l0,0h53.134
	c1.244,0,2.252,1.008,2.252,2.251S643.907,657.342,642.663,657.342L642.663,657.342z"/>
<path fill="#F2F2F2" d="M642.663,681.658h-53.134c-1.243,0-2.251-1.009-2.251-2.252s1.008-2.251,2.251-2.251h53.134
	c1.244,0,2.252,1.008,2.252,2.251S643.907,681.658,642.663,681.658L642.663,681.658z"/>
<path fill="#F2F2F2" d="M731.819,657.342h-53.133c-1.244,0-2.252-1.008-2.252-2.251s1.008-2.251,2.252-2.251l0,0h53.133
	c1.244,0,2.252,1.008,2.252,2.251S733.063,657.342,731.819,657.342z"/>
<path fill="#F2F2F2" d="M766.942,632.126H475.157c-1.244,0-2.252-1.008-2.252-2.251s1.008-2.252,2.252-2.252l0,0h291.785
	c1.243,0,2.251,1.009,2.251,2.252S768.186,632.126,766.942,632.126z"/>
<path fill="#F2F2F2" d="M431.029,632.126h-53.134c-1.244,0-2.251-1.008-2.251-2.251s1.008-2.252,2.251-2.252l0,0h53.134
	c1.243,0,2.251,1.009,2.251,2.252S432.272,632.126,431.029,632.126z"/>
<path fill="#F2F2F2" d="M766.942,706.874H475.157c-1.244,0-2.252-1.009-2.252-2.252s1.008-2.251,2.252-2.251l0,0h291.785
	c1.243,0,2.251,1.008,2.251,2.251S768.186,706.874,766.942,706.874z"/>
<path fill="#F2F2F2" d="M431.029,706.874h-53.134c-1.244,0-2.251-1.009-2.251-2.252s1.008-2.251,2.251-2.251l0,0h53.134
	c1.243,0,2.251,1.008,2.251,2.251S432.272,706.874,431.029,706.874z"/>
<polygon fill="#3361DC" points="519.06,401.13 447.014,472.275 519.06,543.42 535.271,527.21 480.786,472.725 535.72,417.79 "/>
<polygon fill="#3361DC" points="625.327,401.13 697.373,472.275 625.327,543.42 609.117,527.21 663.602,472.725 608.667,417.79 "/>
<circle fill="#3361DC" cx="216.193" cy="177" r="9"/>
<circle fill="#3361DC" cx="240.193" cy="177" r="9"/>
<circle fill="#3361DC" cx="264.193" cy="177" r="9"/>
<rect x="196.193" y="192" opacity="0.1" enable-background="new    " width="752" height="3"/>
<path fill="#F2F2F2" d="M1126.193,607.453c0,63.771-37.911,86.038-84.676,86.038c-46.766,0-84.677-22.267-84.677-86.038
	c0-63.771,84.677-144.897,84.677-144.897S1126.193,543.683,1126.193,607.453z"/>
<polygon fill="#3F3D56" points="1038.433,683.736 1039.3,630.365 1075.391,564.338 1039.437,621.993 1039.826,597.995 
	1064.699,550.226 1039.929,591.645 1039.929,591.645 1040.63,548.484 1067.265,510.453 1040.74,541.697 1041.178,462.556 
	1038.425,567.325 1038.651,563.003 1011.571,521.552 1038.217,571.3 1035.694,619.503 1035.619,618.223 1004.4,574.602 
	1035.524,622.743 1035.209,628.771 1035.152,628.862 1035.178,629.357 1028.776,751.653 1037.329,751.653 1038.354,688.485 
	1069.404,640.461 "/>
<path fill="#2F2E41" d="M122.622,751.092c-2.598,1.446-5.338,2.62-8.178,3.502c-5.079,1.388-10.507,0.879-15.637,2.063
	c-2.1,0.485-4.386,1.5-5.054,3.549c-0.49,1.504,0.043,3.127,0.554,4.623c5.668,16.62,9.085,34.267,18.125,49.321
	c3.799,6.322,8.515,12.047,13.993,16.987c2.055,1.853,4.384,3.664,7.136,3.955c3.98,0.42,7.548-2.466,7.969-6.446
	c0.135-1.276-0.072-2.565-0.599-3.736c-0.811-1.801-2.317-3.196-3.289-4.915c-1.054-2.19-1.672-4.564-1.82-6.991
	c-0.893-7.108-1.753-14.537,0.709-21.265c1.652-4.513,4.682-8.359,7.207-12.448c2.524-4.088,4.622-8.771,4.06-13.544
	c-0.383-3.256-1.972-6.236-3.65-9.054c-1.682-2.822-5.005-10.408-8.383-11.351C132.257,744.364,125.68,749.524,122.622,751.092z"/>
<path fill="#2F2E41" d="M215.057,808.5c0.053,1.608-0.171,3.213-0.663,4.745c-1.058,2.793-3.681,4.706-5.037,7.367
	c-1.885,3.7-1.031,8.174,0.218,12.135c0.783,2.482,1.81,5.066,3.913,6.603c1.798,1.114,3.843,1.77,5.954,1.907
	c18.037,2.496,36.358,1.063,54.559,1.587c3.317,0.095,6.83,0.211,9.726-1.41c2.896-1.621,4.686-5.696,2.716-8.367
	c-1.769-2.399-5.265-2.377-8.242-2.518c-7.751-0.395-15.133-3.436-20.913-8.615c-1.14-0.974-2.129-2.111-2.934-3.377
	c-0.619-1.122-1.133-2.3-1.534-3.518c-2.552-6.911-5.587-13.634-9.083-20.118c-0.979-1.815-2.087-3.705-3.906-4.677
	c-1.332-0.605-2.776-0.921-4.239-0.925c-4.536-0.294-16.283-1.838-19.791,1.689C212.558,794.269,215.128,804.36,215.057,808.5z"/>
<circle fill="#FBBEBE" cx="242.971" cy="376.72" r="28.975"/>
<path fill="#FBBEBE" d="M216.806,400.646c-1.723,4.614-4.646,8.947-8.9,11.431l40.075,8.174c-1.454-5.849-1.645-11.939-0.562-17.868
	c0.398-1.436,0.479-2.939,0.24-4.409c-0.753-2.907-4.026-4.307-6.955-4.975c-7.314-1.667-13.782-2.562-20.579-5.792
	C218.046,390.763,218.337,396.545,216.806,400.646z"/>
<path fill="#2F2E41" d="M207.571,401.227c8.734-3.952,18.797-3.689,27.313,0.714c5.138,2.708,9.392,6.794,13.571,10.826
	c3.853,3.717,7.962,7.973,8.236,13.319c0.133,2.59-0.676,5.122-1.084,7.684c-1.503,10.855,4.025,21.475,13.78,26.47
	c3.184,5.303,3.84,11.729,3.889,17.914c0.185,23.436-7.209,47.16-1.93,69.995c1.239,5.361,3.162,10.554,4.232,15.951
	c1.387,6.991,1.318,14.18,2.043,21.27c0.787,7.678,2.504,15.232,5.113,22.496c-1.744,2.773-5.374,3.837-8.642,3.612
	s-6.325-1.644-9.242-3.136c-14.124-7.228-27.06-16.757-41.687-22.899c-9.678-4.063-19.988-6.595-29.376-11.288
	c-9.389-4.693-18.12-12.143-20.991-22.238c-1.241-4.365-1.317-8.965-1.385-13.503c-0.285-19.114-0.55-38.437,3.61-57.094
	c3.669-16.454,10.742-32.194,12.285-48.98c0.502-5.465,0.513-11.314,3.566-15.874C195.188,410.021,204.505,408.352,207.571,401.227z
	"/>
<path fill="#2F2E41" d="M226.492,377.129c1.707-2.227,5-2.53,7.728-1.871c2.728,0.658,5.243,2.064,7.998,2.599
	c1.266,0.359,2.625,0.168,3.743-0.526c0.963-0.948,1.539-2.221,1.616-3.57c0.965-5.741,1.19-11.582,0.671-17.38
	c-0.144-0.813-0.089-1.649,0.159-2.438c0.682-1.644,2.763-2.035,4.462-2.562c5.768-1.95,9.479-7.563,9.013-13.634
	c-0.042-1.415-0.637-2.758-1.657-3.74c-1.175-0.958-2.82-1.017-4.336-1.028c-7.789-0.063-15.577-0.062-23.366,0.005
	c-2.883,0.024-5.911,0.096-8.41,1.533c-1.848,1.063-3.222,2.772-4.88,4.111c-4.326,3.491-10.178,4.201-15.441,5.991
	c-2.569,0.731-4.903,2.123-6.768,4.035c-1.75,2-2.592,4.974-1.493,7.393c0.564,1.009,1.194,1.979,1.887,2.904
	c3.104,4.964,1.038,11.402,1.501,17.239c0.579,7.288,11.365,19.111,18.679,20.837C229.404,399.812,222.583,381.914,226.492,377.129z
	"/>
<path fill="#2F2E41" d="M210.134,696.683c0.745,5.321,1.701,10.662,1.445,16.029c-0.357,7.493-3.059,14.714-3.559,22.199
	c-0.374,5.591,0.49,11.242-0.287,16.791c-0.497,3.554-1.656,6.979-2.373,10.494c-2.295,11.575,0.222,23.587,6.973,33.266
	c0.491,0.819,1.189,1.496,2.023,1.961c0.801,0.297,1.658,0.41,2.508,0.332c8.434-0.172,16.844-0.937,25.17-2.288
	c0.609-0.024,1.187-0.279,1.616-0.713c0.188-0.287,0.308-0.613,0.351-0.954c1.544-7.936-1.977-15.894-2.872-23.928
	c-0.956-8.58,1.103-17.178,3.146-25.565c0.927-4.137,2.084-8.22,3.468-12.228c0.987-2.697,2.18-5.32,3.037-8.063
	c1.212-4.308,1.951-8.735,2.202-13.203c0.594-7.05,0.91-14.116,0.945-21.198c0.202-6.712-0.356-13.425-1.665-20.011
	c-1.878-8.338-5.724-16.08-9.536-23.729c-2.038,0.488-3.952,1.397-5.618,2.67c-4.913,3.182-10.042,6.016-15.35,8.48
	c-3.566,1.656-10.522,2.833-12.785,6.285c-2.232,3.405-0.792,10.352-0.622,14.106C208.645,683.861,209.239,690.283,210.134,696.683z
	"/>
<path opacity="0.1" enable-background="new    " d="M210.134,696.683c0.745,5.321,1.701,10.662,1.445,16.029
	c-0.357,7.493-3.059,14.714-3.559,22.199c-0.374,5.591,0.49,11.242-0.287,16.791c-0.497,3.554-1.656,6.979-2.373,10.494
	c-2.295,11.575,0.222,23.587,6.973,33.266c0.491,0.819,1.189,1.496,2.023,1.961c0.801,0.297,1.658,0.41,2.508,0.332
	c8.434-0.172,16.844-0.937,25.17-2.288c0.609-0.024,1.187-0.279,1.616-0.713c0.188-0.287,0.308-0.613,0.351-0.954
	c1.544-7.936-1.977-15.894-2.872-23.928c-0.956-8.58,1.103-17.178,3.146-25.565c0.927-4.137,2.084-8.22,3.468-12.228
	c0.987-2.697,2.18-5.32,3.037-8.063c1.212-4.308,1.951-8.735,2.202-13.203c0.594-7.05,0.91-14.116,0.945-21.198
	c0.202-6.712-0.356-13.425-1.665-20.011c-1.878-8.338-5.724-16.08-9.536-23.729c-2.038,0.488-3.952,1.397-5.618,2.67
	c-4.913,3.182-10.042,6.016-15.35,8.48c-3.566,1.656-10.522,2.833-12.785,6.285c-2.232,3.405-0.792,10.352-0.622,14.106
	C208.645,683.861,209.239,690.283,210.134,696.683z"/>
<path fill="#2F2E41" d="M170.961,583.018c-3.848,10.359,1.809,21.555,6.722,31.452c12.106,24.387,20.513,50.408,28.875,76.317
	c0.626,1.941,1.252,4.059,0.554,5.975c-0.603,1.361-1.582,2.522-2.821,3.347c-5.766,4.38-13.107,5.938-19.975,8.23
	c-6.637,2.215-12.994,5.194-18.942,8.88c-4.977,3.084-9.639,6.644-14.292,10.197l-14.812,11.313
	c-0.959,0.648-1.797,1.459-2.476,2.396c-1.429,2.241-0.844,5.167-0.132,7.729c1.883,6.78,4.309,13.399,7.252,19.792
	c0.484,1.401,1.406,2.609,2.63,3.446c2.312,1.242,5.14-0.405,6.905-2.347c1.766-1.942,3.292-4.359,5.781-5.193
	c2.486-0.832,5.222,0.176,7.817-0.188c4.199-0.59,6.986-4.457,10.013-7.427c12.365-12.131,33.01-11.251,46.612-21.977
	c1.966-1.76,4.048-3.386,6.231-4.868c2.299-1.359,4.907-2.105,7.293-3.307c7.257-3.654,11.819-11.208,14.263-18.957
	c2.444-7.748,3.141-15.928,4.896-23.86c0.908-4.101,2.103-8.157,2.507-12.339c0.26-3.888,0.175-7.792-0.253-11.666l-4.908-60.715
	c-0.399-4.943-0.8-9.893-1.576-14.791c-14.577,0.521-29.143,1.107-43.728,1.28C193.792,585.874,181.973,586.686,170.961,583.018z"/>
<path fill="#2F2E41" d="M165.603,597.221c1.978,3.181,6.79,3.115,10.104,1.371c3.314-1.743,5.889-4.673,9.211-6.401
	c4.464-2.322,9.746-2.235,14.776-2.093c7.963,0.225,16.025,0.464,23.687,2.646c7.925,2.257,15.64,6.604,23.834,5.736
	c1.426-0.151,2.985-0.56,3.761-1.766c0.455-0.873,0.668-1.853,0.62-2.836l0.268-7.159c0.164-1.237-0.034-2.497-0.57-3.625
	c-0.688-0.938-1.63-1.66-2.716-2.079c-11.663-5.646-24.964-6.697-37.915-7.142c-6.583-0.226-13.169-0.318-19.757-0.278
	c-5.591,0.034-12.303-0.774-17.739,0.72C165.871,576.32,161.901,591.269,165.603,597.221z"/>
<path fill="#3361DC" d="M238.839,409.726c-15.282-0.136-29.131-10.223-44.412-10.468c-1.846-0.128-3.696,0.191-5.393,0.93
	c-2.129,1.073-3.529,3.146-5.146,4.898c-4.519,4.893-11.062,7.506-15.703,12.281c-4.353,4.478-6.773,11.149-5.055,17.153
	c1.718,6.003,8.204,10.608,14.279,9.165c2.448-7.923,7.5-14.787,14.336-19.479c3.558-2.282,7.307-4.25,11.206-5.882
	c6.868-3.112,14.548-6.283,21.718-3.95c2.645,0.998,5.138,2.357,7.409,4.04l11.954,8.03
	C242.64,420.95,241.387,414.788,238.839,409.726z"/>
<path fill="#3361DC" d="M175.649,438.374c-2.029,2.531,0.894,6.199,0.446,9.413c-0.297,2.135-2.054,3.766-2.786,5.793
	c-0.758,2.101-0.356,4.427-0.643,6.642c-0.289,1.61-0.715,3.192-1.275,4.729c-1.287,4.592-2.186,9.283-2.686,14.025l-2.675,19.976
	c-0.464,3.007-0.747,6.038-0.846,9.078c0.135,2.272-0.017,4.553-0.452,6.787c-0.592,2.183-1.904,4.093-2.786,6.175
	c-0.882,2.083-1.292,4.603-0.1,6.524c-3.991,3.325-5.178,9.854-2.387,14.235c0.531,0.683,0.947,1.448,1.23,2.266
	c0.154,1.142-0.034,2.305-0.542,3.34l-2.705,7.207c-0.692,1.845-0.912,4.652,1.013,5.074c-1.594,1.655-2.836,3.617-3.651,5.767
	c-0.803,2.192-0.437,4.644,0.973,6.506c0.672,0.589,1.244,1.283,1.694,2.056c0.265,1.076,0.196,2.207-0.196,3.243
	c-0.817,3.182-0.284,6.559,1.473,9.334c1.841,2.767,5.145,4.184,8.418,3.608c5.41-1.221,10.272-3.146,15.728-2.146
	c11.746,2.155,23.53,4.319,34.906,7.951c12.984,4.146,25.556,10.225,39.125,11.501c0.893,0.183,1.822,0.038,2.617-0.407
	c0.691-0.655,1.122-1.539,1.21-2.487c1.398-6.555,2.796-13.11,4.194-19.665c1.69-7.266,2.977-14.619,3.855-22.027
	c0.478-4.781,0.614-9.59,0.75-14.393l1.081-38.231c0.507-5.634-0.245-11.311-2.2-16.619l-6.218-19.849
	c-3.548-11.326-11.688-21.371-14.585-32.882c-1.834-7.284-3.189-15.103-8.108-20.78c-7.012-8.095-19.145-9.354-29.764-7.963
	c-4.797,0.629-9.636,1.714-13.785,4.202c-4.798,2.877-8.333,7.408-11.753,11.836C181.402,431.843,178.533,434.776,175.649,438.374z"
	/>
<path fill="#FBBEBE" d="M200.444,550.823c0.875,3.772,2.712,7.251,3.837,10.957c1.884,6.209,1.724,12.896,3.605,19.105
	c0.79,2.606,1.933,5.109,2.5,7.772c1.321,6.211-0.607,12.636-3.003,18.517c-2.396,5.88-5.313,11.678-6.091,17.979
	c-0.548,4.438,0.239,9.45,3.66,12.33c3.552,2.99,8.713,2.788,13.339,2.391c1.661-0.047,3.3-0.389,4.841-1.009
	c3.538-1.673,5.028-5.859,5.855-9.685c2.771-12.819,1.979-26.106,1.174-39.197l-2.106-34.233c-0.405-6.591-0.84-13.318-2.871-19.646
	c-0.739-2.303-2.027-6.954-4.129-8.424c-2.083-1.456-8.03-1.521-10.608-1.642C198.348,525.471,198.483,542.356,200.444,550.823z"/>
<path fill="#2F2E41" d="M213.848,424.424c-2.471-1.294-5.583-0.736-7.972,0.704c-2.306,1.579-4.326,3.54-5.972,5.798
	c-5.339,6.518-10.991,13.995-10.199,22.382c0.297,3.146,1.501,6.121,2.317,9.173c3.58,13.38-0.379,27.53,0.075,41.373
	c0.263,7.998,2.003,15.866,3.736,23.679c0.354,1.595,0.92,3.44,2.463,3.978c1.159,0.403,2.411-0.115,3.557-0.551
	c8.671-3.204,18.359-1.983,25.963,3.272c2.865-1.529,1.792-6.363,1.149-9.546c-1.908-9.458,0.682-19.215,3.829-28.336
	c3.146-9.121,6.911-18.23,7.432-27.864c0.591-10.916-3.029-21.57-6.6-31.903c-0.78-2.255-1.631-4.62-3.439-6.178
	c-1.547-1.15-3.32-1.961-5.203-2.377C221.192,426.906,217.352,426.259,213.848,424.424z"/>
<circle fill="#F57E7E" cx="909.724" cy="118.733" r="25.746"/>
</svg>
