<svg width="115" height="139" viewBox="0 0 115 139" fill="none" xmlns="http://www.w3.org/2000/svg">
<g clip-path="url(#clip0)">
<path d="M107.466 94.7923H7.40779C4.2457 94.7923 1.68286 92.2294 1.68286 89.0682V7.63209C1.68286 4.47 4.2457 1.90717 7.40779 1.90717H107.466C110.627 1.90717 113.19 4.47 113.19 7.63209V89.0682C113.19 92.2294 110.627 94.7923 107.466 94.7923Z" fill="white"/>
<path d="M113.19 7.63213V89.0683C113.19 92.2295 110.628 94.7923 107.466 94.7923H100.474C103.636 94.7923 106.198 92.2295 106.198 89.0683V7.63213C106.198 4.47092 103.636 1.90808 100.474 1.90808H107.466C110.628 1.90808 113.19 4.47092 113.19 7.63213Z" fill="white"/>
<path d="M113.19 81.0007H1.68286V89.0683C1.68286 92.2295 4.2457 94.7923 7.40779 94.7923H107.466C110.627 94.7923 113.19 92.2295 113.19 89.0683V81.0007Z" fill="#438BCD"/>
<path d="M113.19 81.0007V89.0682C113.19 92.2294 110.628 94.7923 107.466 94.7923H100.474C103.636 94.7923 106.198 92.2294 106.198 89.0682V81.0007H113.19Z" fill="#438BCD"/>
<g filter="url(#filter0_d)">
<path d="M113.318 21.4351H1.80737V7.63122C1.80737 4.47 4.37021 1.90717 7.53143 1.90717H107.594C110.755 1.90717 113.318 4.47 113.318 7.63122V21.4351Z" fill="#438BCD"/>
</g>
<path d="M113.318 7.63036V21.4359H106.198V7.63036C106.198 4.47091 103.636 1.90808 100.474 1.90808H107.594C110.756 1.90808 113.318 4.47091 113.318 7.63036Z" fill="#438BCD"/>
<path d="M41.8398 94.7923H73.0325V104.194H41.8398V94.7923Z" fill="#438BCD"/>
<path d="M83.1398 113.417H31.7323C31.1128 113.417 30.6101 112.915 30.6101 112.295V108.659C30.6101 106.194 32.6097 104.194 35.0751 104.194H79.7978C82.2633 104.194 84.2619 106.194 84.2619 108.659V112.295C84.2619 112.916 83.7601 113.417 83.1398 113.417Z" fill="#438BCD"/>
<path d="M84.2622 108.658V112.296C84.2622 112.916 83.7595 113.418 83.14 113.418H79.1795V108.658C79.1795 106.195 77.18 104.195 74.7163 104.195H79.799C82.2635 104.195 84.2622 106.194 84.2622 108.658Z" fill="#438BCD"/>
<path d="M66.3669 62.0176H102.812V68.9253H66.3669V62.0176Z" fill="#E6E9EA"/>
<path d="M66.3669 80.3593H102.812V87.2678H66.3669V80.3593Z" fill="#E6E9EA"/>
<path d="M98.5029 62.0176H102.812V68.9253H98.5029V62.0176Z" fill="#E0E2E2"/>
<path d="M98.5029 80.3593H102.812V87.2678H98.5029V80.3593Z" fill="#E0E2E2"/>
<path d="M105.83 62.0176H63.3497C62.4513 62.0176 61.7222 61.2894 61.7222 60.3909V52.2111C61.7222 51.3127 62.4513 50.5836 63.3497 50.5836H105.83C106.728 50.5836 107.457 51.3127 107.457 52.2111V60.3909C107.457 61.2894 106.728 62.0176 105.83 62.0176Z" fill="white"/>
<path d="M105.83 80.3593H63.3497C62.4513 80.3593 61.7222 79.6311 61.7222 78.7326V70.5528C61.7222 69.6544 62.4513 68.9253 63.3497 68.9253H105.83C106.728 68.9253 107.457 69.6544 107.457 70.5528V78.7326C107.457 79.6311 106.728 80.3593 105.83 80.3593Z" fill="white"/>
<path d="M105.83 98.701H63.3497C62.4513 98.701 61.7222 97.9728 61.7222 97.0743V88.8945C61.7222 87.9952 62.4513 87.267 63.3497 87.267H105.83C106.728 87.267 107.457 87.9952 107.457 88.8945V97.0743C107.457 97.9728 106.728 98.701 105.83 98.701Z" fill="white"/>
<path d="M107.457 52.2111V60.3909C107.457 61.2885 106.73 62.0176 105.83 62.0176H102.056C102.956 62.0176 103.682 61.2885 103.682 60.3909V52.2111C103.682 51.3135 102.956 50.5844 102.056 50.5844H105.83C106.73 50.5844 107.457 51.3135 107.457 52.2111Z" fill="#FAFAFA"/>
<path d="M107.457 70.552V78.7318C107.457 79.6311 106.73 80.3584 105.83 80.3584H102.056C102.956 80.3584 103.682 79.6311 103.682 78.7318V70.552C103.682 69.6544 102.956 68.9253 102.056 68.9253H105.83C106.73 68.9253 107.457 69.6544 107.457 70.552Z" fill="#FAFAFA"/>
<path d="M107.457 88.8954V97.0743C107.457 97.9719 106.73 98.7019 105.83 98.7019H102.056C102.956 98.7019 103.682 97.9719 103.682 97.0743V88.8954C103.682 87.9952 102.956 87.2679 102.056 87.2679H105.83C106.73 87.2679 107.457 87.9952 107.457 88.8954Z" fill="#FAFAFA"/>
<path d="M15.6682 11.6233C15.6682 13.4219 14.2108 14.8801 12.4122 14.8801C10.6136 14.8801 9.15625 13.4219 9.15625 11.6233C9.15625 9.82552 10.6136 8.36731 12.4122 8.36731C14.2108 8.36731 15.6682 9.82552 15.6682 11.6233Z" fill="white"/>
<path d="M28.2438 11.6233C28.2438 13.4219 26.7855 14.8801 24.9878 14.8801C23.1892 14.8801 21.731 13.4219 21.731 11.6233C21.731 9.82552 23.1892 8.36731 24.9878 8.36731C26.7855 8.36731 28.2438 9.82552 28.2438 11.6233Z" fill="white"/>
<path d="M40.8183 11.6233C40.8183 13.4219 39.361 14.8801 37.5624 14.8801C35.7646 14.8801 34.3064 13.4219 34.3064 11.6233C34.3064 9.82552 35.7646 8.36731 37.5624 8.36731C39.361 8.36731 40.8183 9.82552 40.8183 11.6233Z" fill="#F6F6F6"/>
<path d="M15.6673 11.6251C15.6673 13.4219 14.2108 14.8784 12.4131 14.8784C11.5427 14.8784 10.7505 14.5371 10.167 13.9791C11.9288 13.9405 13.3466 12.4998 13.3466 10.7275C13.3466 9.79835 12.9588 8.96309 12.3368 8.37086C12.3622 8.36823 12.3885 8.36823 12.4131 8.36823C14.2108 8.36823 15.6673 9.82468 15.6673 11.6251Z" fill="#FAFAFA"/>
<path d="M28.2428 11.6251C28.2428 13.4219 26.7863 14.8784 24.9868 14.8784C24.1165 14.8784 23.3259 14.5371 22.7407 13.9791C24.5043 13.9405 25.923 12.4998 25.923 10.7275C25.923 9.79835 25.5343 8.96309 24.9131 8.37086C24.9377 8.36823 24.9622 8.36823 24.9868 8.36823C26.7863 8.36823 28.2428 9.82468 28.2428 11.6251Z" fill="white"/>
<path d="M40.8193 11.6251C40.8193 13.4219 39.3603 14.8784 37.5625 14.8784C36.6921 14.8784 35.9025 14.5371 35.3164 13.9791C37.0808 13.9405 38.496 12.4998 38.496 10.7275C38.496 9.79835 38.1082 8.96309 37.4862 8.37086C37.5116 8.36823 37.5379 8.36823 37.5625 8.36823C39.3603 8.36823 40.8193 9.82468 40.8193 11.6251Z" fill="#FEFEFE"/>
<path d="M13.243 42.1246C13.5712 42.4527 14.002 42.6177 14.4328 42.6177C14.8636 42.6177 15.2944 42.4536 15.6234 42.1246C16.2805 41.4674 16.2805 40.4014 15.6234 39.7442L11.5365 35.6574L15.6234 31.5714C16.2805 30.9134 16.2805 29.8483 15.6234 29.1911C14.9662 28.534 13.9002 28.534 13.243 29.1911L7.96648 34.4677C7.65062 34.7835 7.47339 35.2117 7.47339 35.6574C7.47339 36.104 7.65062 36.5322 7.96648 36.848L13.243 42.1246Z" fill="black"/>
<path d="M29.9451 35.6574L25.8582 39.7442C25.2011 40.4014 25.2011 41.4674 25.8591 42.1245C26.1873 42.4527 26.618 42.6176 27.0488 42.6176C27.4796 42.6176 27.9104 42.4527 28.2386 42.1245L33.516 36.8471C34.1732 36.1899 34.1732 35.1239 33.516 34.4676L28.2386 29.1902C27.5814 28.533 26.5163 28.533 25.8591 29.1902C25.2011 29.8482 25.2011 30.9134 25.8591 31.5705L29.9451 35.6574Z" fill="black"/>
<path d="M18.232 42.5009C18.4338 42.5799 18.6426 42.6176 18.847 42.6176C19.5191 42.6176 20.1535 42.2123 20.414 41.5499L24.5597 30.9959C24.9001 30.1308 24.4737 29.1542 23.6086 28.8138C22.7444 28.4743 21.767 28.8998 21.4274 29.7649L17.2809 40.3189C16.9414 41.184 17.3669 42.1614 18.232 42.5009Z" fill="black"/>
<path d="M10.1091 52.4917H21.4475C22.3766 52.4917 23.1303 51.738 23.1303 50.808C23.1303 49.8789 22.3766 49.1252 21.4475 49.1252H10.1091C9.17906 49.1252 8.42627 49.8789 8.42627 50.808C8.42627 51.738 9.17906 52.4917 10.1091 52.4917Z" fill="black"/>
<path d="M47.562 49.1252H27.6279C26.6987 49.1252 25.9451 49.8789 25.9451 50.808C25.9451 51.738 26.6987 52.4917 27.6279 52.4917H47.562C48.492 52.4917 49.2457 51.738 49.2457 50.808C49.2457 49.8789 48.492 49.1252 47.562 49.1252Z" fill="black"/>
<path d="M10.1091 59.5905H14.9391C15.8682 59.5905 16.6219 58.8369 16.6219 57.9068C16.6219 56.9777 15.8682 56.224 14.9391 56.224H10.1091C9.17906 56.224 8.42627 56.9777 8.42627 57.9068C8.42627 58.8369 9.17906 59.5905 10.1091 59.5905Z" fill="black"/>
<path d="M41.4045 56.224C40.4745 56.224 39.7217 56.9777 39.7217 57.9068C39.7217 58.8369 40.4745 59.5905 41.4045 59.5905H44.3455C45.2755 59.5905 46.0292 58.8369 46.0292 57.9068C46.0292 56.9777 45.2755 56.224 44.3455 56.224H41.4045Z" fill="black"/>
<path d="M36.9747 57.9068C36.9747 56.9777 36.221 56.224 35.2919 56.224H20.8449C19.9149 56.224 19.1621 56.9777 19.1621 57.9068C19.1621 58.8369 19.9149 59.5905 20.8449 59.5905H35.2919C36.221 59.5905 36.9747 58.8369 36.9747 57.9068Z" fill="black"/>
<path d="M47.9998 57.9068C47.9998 58.8369 48.7534 59.5905 49.6826 59.5905H55.1916C56.1217 59.5905 56.8753 58.8369 56.8753 57.9068C56.8753 56.9777 56.1217 56.224 55.1916 56.224H49.6826C48.7534 56.224 47.9998 56.9777 47.9998 57.9068Z" fill="black"/>
<path d="M38.8336 37.0077H44.6445C45.5745 37.0077 46.3282 36.254 46.3282 35.324C46.3282 34.3948 45.5745 33.6412 44.6445 33.6412H38.8336C37.9036 33.6412 37.1499 34.3948 37.1499 35.324C37.1499 36.254 37.9036 37.0077 38.8336 37.0077Z" fill="black"/>
<path d="M51.1529 37.0077H86.6088C87.5388 37.0077 88.2916 36.254 88.2916 35.324C88.2916 34.3948 87.5388 33.6412 86.6088 33.6412H51.1529C50.2229 33.6412 49.4692 34.3948 49.4692 35.324C49.4692 36.254 50.2229 37.0077 51.1529 37.0077Z" fill="black"/>
<path d="M81.2238 41.0464H66.861C65.9319 41.0464 65.1782 41.8001 65.1782 42.7301C65.1782 43.6592 65.9319 44.4129 66.861 44.4129H81.2238C82.1529 44.4129 82.9066 43.6592 82.9066 42.7301C82.9066 41.8001 82.1529 41.0464 81.2238 41.0464Z" fill="black"/>
<path d="M61.4755 41.0463H56.5385C55.6085 41.0463 54.8557 41.7999 54.8557 42.73C54.8557 43.6591 55.6085 44.4128 56.5385 44.4128H61.4755C62.4056 44.4128 63.1584 43.6591 63.1584 42.73C63.1584 41.7999 62.4056 41.0463 61.4755 41.0463Z" fill="black"/>
<path d="M38.8336 44.4128H50.9283C51.8574 44.4128 52.6111 43.6591 52.6111 42.73C52.6111 41.7999 51.8574 41.0463 50.9283 41.0463H38.8336C37.9036 41.0463 37.1499 41.7999 37.1499 42.73C37.1499 43.6591 37.9036 44.4128 38.8336 44.4128Z" fill="black"/>
<path d="M35.3129 63.2635H23.9754C23.0454 63.2635 22.2917 64.0172 22.2917 64.9463C22.2917 65.8755 23.0454 66.6292 23.9754 66.6292H35.3129C36.2421 66.6292 36.9958 65.8755 36.9958 64.9463C36.9958 64.0172 36.2421 63.2635 35.3129 63.2635Z" fill="black"/>
<path d="M18.8197 63.2635H10.1091C9.17906 63.2635 8.42627 64.0172 8.42627 64.9463C8.42627 65.8755 9.17906 66.6292 10.1091 66.6292H18.8197C19.7497 66.6292 20.5025 65.8755 20.5025 64.9463C20.5025 64.0172 19.7497 63.2635 18.8197 63.2635Z" fill="black"/>
<path d="M55.8657 63.2635H41.0546C40.1246 63.2635 39.3718 64.0172 39.3718 64.9463C39.3718 65.8755 40.1246 66.6292 41.0546 66.6292H55.8657C56.7948 66.6292 57.5485 65.8755 57.5485 64.9463C57.5485 64.0172 56.7948 63.2635 55.8657 63.2635Z" fill="black"/>
<path d="M75.8954 54.6178H67.7963C66.8672 54.6178 66.1135 55.3714 66.1135 56.3006C66.1135 57.2306 66.8672 57.9843 67.7963 57.9843H75.8954C76.8255 57.9843 77.5783 57.2306 77.5783 56.3006C77.5783 55.3714 76.8255 54.6178 75.8954 54.6178Z" fill="black"/>
<path d="M89.9494 57.9843H101.383C102.313 57.9843 103.066 57.2306 103.066 56.3006C103.066 55.3714 102.313 54.6178 101.383 54.6178H89.9494C89.0194 54.6178 88.2666 55.3714 88.2666 56.3006C88.2666 57.2306 89.0203 57.9843 89.9494 57.9843Z" fill="black"/>
<path d="M84.2323 54.6178H81.6124C80.6824 54.6178 79.9287 55.3714 79.9287 56.3006C79.9287 57.2306 80.6824 57.9843 81.6124 57.9843H84.2323C85.1623 57.9843 85.9151 57.2306 85.9151 56.3006C85.9151 55.3714 85.1623 54.6178 84.2323 54.6178Z" fill="black"/>
<path d="M67.7963 76.3251H75.8954C76.8255 76.3251 77.5783 75.5723 77.5783 74.6423C77.5783 73.7131 76.8255 72.9595 75.8954 72.9595H67.7963C66.8672 72.9595 66.1135 73.7131 66.1135 74.6423C66.1135 75.5723 66.8672 76.3251 67.7963 76.3251Z" fill="black"/>
<path d="M89.9494 76.3251H101.383C102.313 76.3251 103.066 75.5723 103.066 74.6423C103.066 73.7131 102.313 72.9595 101.383 72.9595H89.9494C89.0194 72.9595 88.2666 73.7131 88.2666 74.6423C88.2666 75.5723 89.0203 76.3251 89.9494 76.3251Z" fill="black"/>
<path d="M81.6125 76.3251H84.2324C85.1624 76.3251 85.9161 75.5723 85.9161 74.6423C85.9161 73.7131 85.1624 72.9595 84.2324 72.9595H81.6125C80.6825 72.9595 79.9297 73.7131 79.9297 74.6423C79.9297 75.5723 80.6825 76.3251 81.6125 76.3251Z" fill="black"/>
<path d="M75.8954 91.3012H67.7963C66.8672 91.3012 66.1135 92.0549 66.1135 92.984C66.1135 93.9132 66.8672 94.6668 67.7963 94.6668H75.8954C76.8255 94.6668 77.5783 93.9132 77.5783 92.984C77.5783 92.0549 76.8255 91.3012 75.8954 91.3012Z" fill="black"/>
<path d="M101.383 91.3012H89.9494C89.0194 91.3012 88.2666 92.0549 88.2666 92.984C88.2666 93.9132 89.0194 94.6668 89.9494 94.6668H101.383C102.313 94.6668 103.066 93.9132 103.066 92.984C103.066 92.0549 102.313 91.3012 101.383 91.3012Z" fill="black"/>
<path d="M84.2323 91.3012H81.6124C80.6824 91.3012 79.9287 92.0549 79.9287 92.984C79.9287 93.9132 80.6824 94.6668 81.6124 94.6668H84.2323C85.1623 94.6668 85.9151 93.9132 85.9151 92.984C85.9151 92.0549 85.1623 91.3012 84.2323 91.3012Z" fill="black"/>
<path d="M107.594 0.224365H7.40775C3.32353 0.224365 0 3.54702 0 7.63212V89.0683C0 93.1525 3.32353 96.4751 7.40775 96.4751H13.7416C14.6707 96.4751 15.4244 95.7223 15.4244 94.7923C15.4244 93.8632 14.6707 93.1095 13.7416 93.1095H7.40775C5.1792 93.1095 3.36652 91.2968 3.36652 89.0683V82.6835H64.6842V85.5842H63.3497C61.5239 85.5842 60.0394 87.0687 60.0394 88.8945V93.1095H23.9745C23.0454 93.1095 22.2917 93.8632 22.2917 94.7923C22.2917 95.7223 23.0454 96.4751 23.9745 96.4751H40.157V102.512H35.0752C31.685 102.512 28.9273 105.27 28.9273 108.659V112.295C28.9273 113.842 30.1855 115.1 31.7323 115.1H83.14C84.6868 115.1 85.945 113.842 85.945 112.295V108.659C85.945 105.27 83.1874 102.512 79.7972 102.512H74.7154V100.384H105.83C107.655 100.384 109.14 98.8993 109.14 97.0735V96.2812C112.42 95.5197 114.872 92.576 114.872 89.0683L115 7.63124C115 3.54702 111.678 0.224365 107.594 0.224365ZM63.4059 78.6765V70.609H105.774V78.6765H63.4059ZM68.0499 67.2425V63.7013H101.129V67.2425H68.0499ZM101.129 82.0422V85.5842H68.0499V82.0422H101.129ZM43.5226 96.4751H60.0394V97.0744C60.0394 98.8993 61.5239 100.384 63.3497 100.384H71.3497V102.512H43.5226V96.4751ZM79.7981 105.878C81.3317 105.878 82.5794 107.126 82.5794 108.659V111.735H32.293V108.659C32.293 107.126 33.5415 105.878 35.0752 105.878H79.7981ZM105.774 97.0174H63.4059V88.9507H105.774V97.0174ZM111.507 89.0683C111.507 90.6984 110.535 92.1031 109.14 92.741V88.8937C109.14 87.0687 107.655 85.5842 105.83 85.5842H104.496V82.6835H111.507V89.0683ZM111.507 79.3179H109.085C109.119 79.1275 109.14 70.5528 109.14 70.5528C109.14 68.727 107.655 67.2425 105.83 67.2425H104.496V63.7013H105.83C107.655 63.7013 109.14 62.2159 109.14 60.391V52.2111C109.14 50.3862 107.655 48.9007 105.83 48.9007H96.3236C95.3936 48.9007 94.6408 49.6544 94.6408 50.5844C94.6408 51.5136 95.3936 52.2673 96.3236 52.2673H105.774V60.3348H63.4059V52.2673H85.8511C86.7812 52.2673 87.534 51.5136 87.534 50.5844C87.534 49.6544 86.7812 48.9007 85.8511 48.9007H63.3497C61.5239 48.9007 60.0394 50.3862 60.0394 52.2111V60.391C60.0394 62.2159 61.5239 63.7013 63.3497 63.7013H64.6842V67.2425H63.3497C61.5239 67.2425 60.0394 68.7279 60.0394 70.5528C60.0394 70.5528 60.0604 79.1275 60.0947 79.3179H3.36652V23.1188H111.507V79.3179ZM111.507 19.7523H3.49023V7.63124C3.49023 5.40356 5.30291 3.59089 7.53146 3.59089H107.465C109.694 3.59089 111.507 5.40356 111.507 7.63212V19.7523Z" fill="black"/>
<path d="M12.4122 6.68451C9.68877 6.68451 7.47339 8.89989 7.47339 11.6233C7.47339 14.3467 9.68877 16.5629 12.4122 16.5629C15.1356 16.5629 17.3518 14.3467 17.3518 11.6233C17.3518 8.89989 15.1356 6.68451 12.4122 6.68451ZM12.4122 13.1964C11.5453 13.1964 10.839 12.491 10.839 11.6233C10.839 10.7564 11.5453 10.0501 12.4122 10.0501C13.2799 10.0501 13.9853 10.7564 13.9853 11.6233C13.9853 12.491 13.2799 13.1964 12.4122 13.1964Z" fill="black"/>
<path d="M24.9877 6.68451C22.2644 6.68451 20.0481 8.89989 20.0481 11.6233C20.0481 14.3467 22.2644 16.5629 24.9877 16.5629C27.7111 16.5629 29.9265 14.3467 29.9265 11.6233C29.9265 8.89989 27.7103 6.68451 24.9877 6.68451ZM24.9877 13.1964C24.12 13.1964 23.4146 12.491 23.4146 11.6233C23.4146 10.7564 24.12 10.0501 24.9877 10.0501C25.8546 10.0501 26.5609 10.7564 26.5609 11.6233C26.5609 12.491 25.8546 13.1964 24.9877 13.1964Z" fill="black"/>
<path d="M37.5623 6.68451C34.8389 6.68451 32.6235 8.89989 32.6235 11.6233C32.6235 14.3467 34.8389 16.5629 37.5623 16.5629C40.2857 16.5629 42.502 14.3467 42.502 11.6233C42.502 8.89989 40.2857 6.68451 37.5623 6.68451ZM37.5623 13.1964C36.6955 13.1964 35.9892 12.491 35.9892 11.6233C35.9892 10.7564 36.6955 10.0501 37.5623 10.0501C38.43 10.0501 39.1355 10.7564 39.1355 11.6233C39.1355 12.491 38.43 13.1964 37.5623 13.1964Z" fill="black"/>
</g>
<ellipse rx="37.5" ry="5.5" transform="matrix(1 0 0 -1 54.5 133.5)" fill="#F57E7E"/>
<defs>
<filter id="filter0_d" x="-2.19263" y="1.90717" width="119.51" height="27.5279" filterUnits="userSpaceOnUse" color-interpolation-filters="sRGB">
<feFlood flood-opacity="0" result="BackgroundImageFix"/>
<feColorMatrix in="SourceAlpha" type="matrix" values="0 0 0 0 0 0 0 0 0 0 0 0 0 0 0 0 0 0 127 0"/>
<feOffset dy="4"/>
<feGaussianBlur stdDeviation="2"/>
<feColorMatrix type="matrix" values="0 0 0 0 0 0 0 0 0 0 0 0 0 0 0 0 0 0 0.25 0"/>
<feBlend mode="normal" in2="BackgroundImageFix" result="effect1_dropShadow"/>
<feBlend mode="normal" in="SourceGraphic" in2="effect1_dropShadow" result="shape"/>
</filter>
<clipPath id="clip0">
<rect width="115" height="115" fill="white"/>
</clipPath>
</defs>
</svg>
