<svg width="1440" height="383" viewBox="0 0 1440 383" fill="none" xmlns="http://www.w3.org/2000/svg">
<path d="M414.571 154.581C277.38 116.675 -23.3323 249.934 -156.54 321.302L-30.4806 491.482L1777.73 383.162L1725.89 185.828C1669.02 251.147 1530.97 353.927 1433.69 242.5C1312.08 103.216 1154.12 221.7 1054.91 223.494C955.708 225.289 893.663 103.495 787.536 165.422C681.409 227.35 586.059 201.964 414.571 154.581Z" fill="#F57E7E"/>
<rect width="1695.43" height="75.976" transform="matrix(-0.999916 -0.012976 -0.0896392 0.995975 1614.25 268.531)" fill="#DFDFDF" fill-opacity="0.77"/>
<rect width="1779.18" height="68.4927" transform="matrix(-0.999983 -0.00588324 -0.0747147 0.997205 1604.37 290.456)" fill="white" fill-opacity="0.58"/>
<rect width="1743.42" height="84.6562" transform="matrix(-0.999944 0.0106019 -0.0398011 0.999208 1607.88 306.306)" fill="white"/>
</svg>
