<svg width="1440" height="432" viewBox="0 0 1440 432" fill="none" xmlns="http://www.w3.org/2000/svg">
<path d="M335.061 188.795C196.755 155.189 -99.6529 297.767 -230.568 373.257L-99.26 539.421L1704.69 374.727L1646.71 179.106C1591.91 246.168 1457.14 353.206 1356.42 244.869C1230.53 109.448 1076.34 232.803 977.24 237.693C878.141 242.582 812.326 122.784 708.183 187.993C604.041 253.202 507.944 230.804 335.061 188.795Z" fill="#F57E7E"/>
<rect width="1695.43" height="75.976" transform="matrix(-0.997696 -0.0678413 -0.144173 0.989553 1617.33 362.459)" fill="#DFDFDF" fill-opacity="0.77"/>
<rect width="1779.18" height="68.4927" transform="matrix(-0.998152 -0.0607629 -0.129338 0.991601 1606.26 383.809)" fill="white" fill-opacity="0.58"/>
<rect width="1743.42" height="290.475" transform="matrix(-0.999018 -0.0443005 -0.0945871 0.995517 1608.89 399.827)" fill="#F7F7F7"/>
</svg>
