<svg width="126" height="154" viewBox="0 0 126 154" fill="none" xmlns="http://www.w3.org/2000/svg">
<path d="M83.1034 82.3927C77.2332 88.2629 77.967 100.108 77.967 100.108H48.1966C48.1966 100.108 48.8256 88.2629 43.0602 82.3927C36.6658 76.7321 32.5776 68.5557 32.5776 59.4359C32.5776 42.6639 46.2049 29.0366 62.977 29.0366C79.749 29.0366 93.3763 42.6639 93.3763 59.4359C93.3763 68.5557 89.3929 76.7321 83.1034 82.3927Z" fill="#438BCD"/>
<path d="M78.8056 109.438C78.8056 111.01 77.5477 112.268 75.9753 112.268H50.0835C48.5111 112.268 47.2532 111.01 47.2532 109.438C47.2532 107.865 48.5111 106.607 50.0835 106.607H75.8705C77.4428 106.607 78.8056 107.865 78.8056 109.438Z" fill="white"/>
<path d="M74.9269 121.178C74.9269 122.75 73.669 124.008 72.0967 124.008H53.9619C52.3895 124.008 51.1316 122.75 51.1316 121.178C51.1316 119.606 52.3895 118.348 53.9619 118.348H72.0967C73.669 118.348 74.9269 119.606 74.9269 121.178Z" fill="white"/>
<path d="M84.6758 83.4409C91.4894 77.2562 95.368 68.5557 95.368 59.4359C95.368 41.6156 80.7973 27.0449 62.977 27.0449C45.1567 27.0449 30.5859 41.6156 30.5859 59.4359C30.5859 68.7654 34.6741 77.6755 41.5926 83.7554C46.729 88.8919 46.2049 99.7937 46.2049 99.8985C46.2049 100.423 46.4146 100.947 46.729 101.366C47.1483 101.785 47.6725 101.995 48.1966 101.995H77.8621C78.3863 101.995 78.9104 101.785 79.3297 101.366C79.749 100.947 79.8538 100.423 79.8538 99.8985C79.8538 99.7937 79.3297 88.8919 84.4661 83.7554C84.571 83.6506 84.6758 83.5458 84.6758 83.4409ZM81.7407 80.8203C81.531 80.9251 81.4262 81.1348 81.3214 81.3444C76.7091 86.2712 75.9753 94.3428 75.8705 98.1165H50.1883C50.0834 94.2379 49.2448 85.8519 44.3181 80.9251C38.1334 75.4742 34.5693 67.7171 34.5693 59.5408C34.5693 43.817 47.358 31.1331 62.977 31.1331C78.7007 31.1331 91.3846 43.9218 91.3846 59.5408C91.3846 67.6123 87.9254 75.4742 81.7407 80.8203Z" fill="#210B20"/>
<path d="M62.9768 35.4309C61.9285 35.4309 60.9851 36.2695 60.9851 37.4226C60.9851 38.4708 61.8237 39.4143 62.9768 39.4143C74.7172 39.4143 84.2563 48.9534 84.2563 60.6938C84.2563 61.7421 85.0949 62.6855 86.248 62.6855C87.2963 62.6855 88.2397 61.8469 88.2397 60.6938C88.2397 46.752 76.9185 35.4309 62.9768 35.4309Z" fill="#210B20"/>
<path d="M80.7972 109.438C80.7972 106.712 78.5959 104.616 75.9753 104.616H50.0834C47.358 104.616 45.2615 106.817 45.2615 109.438C45.2615 112.163 47.4628 114.26 50.0834 114.26H75.8705C78.5959 114.26 80.7972 112.163 80.7972 109.438ZM75.8705 110.276H50.0834C49.5593 110.276 49.2448 109.857 49.2448 109.438C49.2448 108.913 49.6641 108.599 50.0834 108.599H75.8705C76.3946 108.599 76.7091 109.018 76.7091 109.438C76.8139 109.962 76.3946 110.276 75.8705 110.276Z" fill="#210B20"/>
<path d="M72.0966 116.356H53.9619C51.2364 116.356 49.1399 118.557 49.1399 121.178C49.1399 123.903 51.3412 126 53.9619 126H72.0966C74.8221 126 76.9186 123.799 76.9186 121.178C76.9186 118.557 74.7173 116.356 72.0966 116.356ZM72.0966 122.017H53.9619C53.4377 122.017 53.1233 121.597 53.1233 121.178C53.1233 120.654 53.5426 120.339 53.9619 120.339H72.0966C72.6208 120.339 72.9352 120.759 72.9352 121.178C72.9352 121.702 72.6208 122.017 72.0966 122.017Z" fill="#210B20"/>
<path d="M64.9685 15.4093V1.99168C64.9685 0.943428 64.1299 0 62.9768 0C61.9285 0 60.9851 0.838602 60.9851 1.99168V15.5141C60.9851 16.5624 61.8237 17.5058 62.9768 17.5058C64.1299 17.401 64.9685 16.5624 64.9685 15.4093Z" fill="#210B20"/>
<path d="M95.9969 9.95838C95.0535 9.32943 93.9004 9.64391 93.2715 10.4825L85.8289 21.6988C85.1999 22.6422 85.5144 23.7953 86.353 24.4243C86.6675 24.6339 87.0868 24.7388 87.4012 24.7388C88.0302 24.7388 88.6591 24.4243 89.0784 23.9001L96.521 12.6838C97.15 11.8452 96.8355 10.5873 95.9969 9.95838Z" fill="#210B20"/>
<path d="M39.2864 24.3194C39.6009 24.3194 40.0202 24.2146 40.3347 24.005C41.2781 23.376 41.4877 22.2229 40.9636 21.2795L33.7307 9.95838C33.1017 9.01495 31.9486 8.8053 31.0052 9.32943C30.0618 9.95838 29.8521 11.1115 30.3762 12.0549L37.6092 23.376C38.0285 24.005 38.6574 24.3194 39.2864 24.3194Z" fill="#210B20"/>
<path d="M11.5076 33.7537L23.3529 40.1481C23.6674 40.3577 23.9819 40.3577 24.2963 40.3577C25.0301 40.3577 25.6591 39.9384 26.0784 39.3095C26.6025 38.366 26.288 37.1081 25.2398 36.584L13.3945 30.1897C12.4511 29.6655 11.1932 29.98 10.669 31.0283C10.2497 32.0765 10.5642 33.2296 11.5076 33.7537Z" fill="#210B20"/>
<path d="M101.657 40.4625C101.972 40.4625 102.286 40.3577 102.601 40.2529L114.446 33.8585C115.389 33.3344 115.809 32.1813 115.285 31.1331C114.76 30.1897 113.607 29.7704 112.559 30.2945L100.714 36.6888C99.7705 37.213 99.3512 38.366 99.8753 39.4143C100.19 40.0432 100.924 40.4625 101.657 40.4625Z" fill="#210B20"/>
<ellipse rx="24" ry="5.5" transform="matrix(1 0 0 -1 65 148.5)" fill="#F57E7E"/>
</svg>
