<?xml version="1.0" encoding="utf-8"?>
<!-- Generator: Adobe Illustrator 16.0.0, SVG Export Plug-In . SVG Version: 6.00 Build 0)  -->
<!DOCTYPE svg PUBLIC "-//W3C//DTD SVG 1.1//EN" "http://www.w3.org/Graphics/SVG/1.1/DTD/svg11.dtd">
<svg version="1.1" id="Layer_1" xmlns="http://www.w3.org/2000/svg" xmlns:xlink="http://www.w3.org/1999/xlink" x="0px" y="0px"
	 width="500px" height="500px" viewBox="0 0 500 500" enable-background="new 0 0 500 500" xml:space="preserve">
<rect y="85" display="none" fill="#001D7E" stroke="#FFFFFF" stroke-width="3" width="513" height="347"/>
<path fill="#FFFFFF" d="M132.406,175.702c-1.057,1.329-2.04,2.75-2.933,4.133 M206.223,153.044c0.564-0.108,1.293-0.127,2.148,0"/>
<linearGradient id="SVGID_1_" gradientUnits="userSpaceOnUse" x1="410.9404" y1="278.0889" x2="451.3631" y2="164.8454">
	<stop  offset="0" style="stop-color:#561743"/>
	<stop  offset="1" style="stop-color:#C23235"/>
</linearGradient>
<path fill="url(#SVGID_1_)" d="M491,153.427c-18.213,7.285-23.986,20.654-26.409,26.409
	c-13.659,36.736-42.619,114.742-49.175,132.955c-6.374,16.392-22.416,12.022-24.587,9.106c-5.628-8.725-12.53-19.396-20.034-30.962
	c11.838-28.521,37.337-90.7,44.621-111.099c7.285-20.398,18.814-26.098,23.677-26.409H491z"/>
<linearGradient id="SVGID_2_" gradientUnits="userSpaceOnUse" x1="362.9531" y1="254.7979" x2="404.9762" y2="170.2703">
	<stop  offset="0" style="stop-color:#4D1949"/>
	<stop  offset="1" style="stop-color:#A4CCD3"/>
</linearGradient>
<path fill="url(#SVGID_2_)" d="M439.093,153.427c-4.862,0.311-16.392,6.011-23.677,26.409
	c-7.284,20.399-32.783,82.578-44.621,111.099c-8.287-12.749-17.284-26.591-26.1-40.068c7.796-16.683,19.725-50.086,29.741-71.031
	c10.018-20.945,16.702-24.587,21.855-26.409H439.093z"/>
<linearGradient id="SVGID_3_" gradientUnits="userSpaceOnUse" x1="273.0879" y1="180.0518" x2="390.2036" y2="350.7913">
	<stop  offset="0" style="stop-color:#C7513E"/>
	<stop  offset="1" style="stop-color:#871450"/>
</linearGradient>
<path fill="url(#SVGID_3_)" d="M415.416,312.79c-10.198,27.793-19.124,35.515-24.587,35.515h-37.337
	c-16.756,0-29.449-17.594-33.693-26.408c-22.165-37.628-69.938-118.748-83.78-142.061c-11.929-20.106-22.348-26.044-27.647-26.791
	c23.331,0.055,45.496,0.219,62.251,0.382c4.554,0.911,7.286-2.732,26.409,26.409c5.117,7.813,26.117,38.102,47.663,71.031
	c8.815,13.478,17.813,27.319,26.1,40.068c7.504,11.566,14.406,22.237,20.034,30.962C392.75,325.313,409.042,329.182,415.416,312.79z
	"/>
<linearGradient id="SVGID_4_" gradientUnits="userSpaceOnUse" x1="196.9678" y1="198.9878" x2="285.3051" y2="303.2961">
	<stop  offset="0" style="stop-color:#A4CCD3"/>
	<stop  offset="1" style="stop-color:#964B92"/>
</linearGradient>
<path fill="url(#SVGID_4_)" d="M353.492,348.305h-78.315c-14.57,0-20.034-14.57-28.23-26.408
	c-8.469-13.842-27.592-43.893-40.724-65.566c-10.71-17.666-21.673-35.825-30.726-50.997c-6.102-10.198-11.347-19.051-15.063-25.498
	c-10.326-19.433-20.835-13.276-28.029-4.133c6.812-9.69,15.354-21.638,28.029-22.275c6.757-0.327,24.97-0.419,45.788-0.382h2.148
	c5.3,0.747,15.718,6.685,27.647,26.791c13.842,23.313,61.615,104.433,83.78,142.061
	C324.043,330.711,336.736,348.305,353.492,348.305z"/>
<linearGradient id="SVGID_5_" gradientUnits="userSpaceOnUse" x1="115.6587" y1="324.1914" x2="190.7119" y2="244.4135">
	<stop  offset="0" style="stop-color:#C55385"/>
	<stop  offset="1" style="stop-color:#521212"/>
</linearGradient>
<path fill="url(#SVGID_5_)" d="M206.223,256.33l-61.269,91.975L96.69,321.896l78.808-116.563
	C184.55,220.505,195.513,238.664,206.223,256.33z"/>
<linearGradient id="SVGID_6_" gradientUnits="userSpaceOnUse" x1="38.6021" y1="292.0068" x2="169.5711" y2="215.2933">
	<stop  offset="0" style="stop-color:#5DAED4"/>
	<stop  offset="1" style="stop-color:#68176E"/>
</linearGradient>
<path fill="url(#SVGID_6_)" d="M175.498,205.333L96.69,321.896L12,348.305c2.915-3.642,79.536-113.831,117.473-168.469
	c0.947-1.293,1.931-2.695,2.933-4.133c7.194-9.143,17.703-15.3,28.029,4.133C164.151,186.283,169.396,195.135,175.498,205.333z"/>
</svg>
