<?xml version="1.0" encoding="utf-8"?>
<!-- Generator: Adobe Illustrator 16.0.0, SVG Export Plug-In . SVG Version: 6.00 Build 0)  -->
<!DOCTYPE svg PUBLIC "-//W3C//DTD SVG 1.1//EN" "http://www.w3.org/Graphics/SVG/1.1/DTD/svg11.dtd">
<svg version="1.1" id="f8de8b25-3d53-474b-a5b1-b2a4ad6ddbb8"
	 xmlns="http://www.w3.org/2000/svg" xmlns:xlink="http://www.w3.org/1999/xlink" x="0px" y="0px" width="970.153px"
	 height="887.001px" viewBox="0 -87.718 970.153 887.001" enable-background="new 0 -87.718 970.153 887.001" xml:space="preserve">
<circle fill="#F57E7E" cx="769.62" cy="172.068" r="22.405"/>
<circle fill="#438BCD" cx="739.672" cy="583.8" r="111.879"/>
<circle fill="#438BCD" cx="244.459" cy="752.562" r="43.738"/>
<circle fill="#F57E7E" cx="490.887" cy="70.995" r="156.341"/>
<title>Mobile app</title>
<path fill="#F2F2F2" d="M718.768,430.508L526.104,189.75c-8.748,8-19.525,13.443-31.158,15.733
	c-36.27,7.144-71.692-17.625-79.116-55.323c-5.248-26.647,4.911-52.608,24.123-68.069L374.259,0L0,319.862L344.509,750.37
	L718.768,430.508z"/>
<line fill="none" stroke="#3F3D56" stroke-width="2" stroke-miterlimit="10" x1="82.154" y1="752.563" x2="970.153" y2="752.563"/>
<circle fill="none" stroke="#3F3D56" stroke-width="2" stroke-miterlimit="10" cx="619.428" cy="56.916" r="14.756"/>
<circle fill="none" stroke="#3F3D56" stroke-width="2" stroke-miterlimit="10" cx="814.428" cy="485.917" r="14.756"/>
<circle fill="none" stroke="#3F3D56" stroke-width="2" stroke-miterlimit="10" cx="170.696" cy="93.916" r="14.756"/>
<circle fill="#F2F2F2" cx="479.377" cy="139.729" r="54.315"/>
<path fill="#3F3D56" d="M156.884,109.379H397.5c23.916,0,44.638,16.571,49.898,39.901l121.578,539.267
	c5.021,22.273-8.963,44.398-31.236,49.42c-2.32,0.523-4.682,0.846-7.057,0.963l-247.354,12.188
	c-27.399,1.35-51.548-17.834-56.431-44.828l-68.966-381.268l-5.131,1.466l-13.196-72.264l5.281-1.321l-19.251-106.425
	c-3.096-17.115,8.269-33.5,25.384-36.596C152.954,109.531,154.917,109.363,156.884,109.379z"/>
<path fill="#3361DC" d="M365.823,121.005h28.087c16.619,0,30.993,11.577,34.536,27.813l116.699,534.868
	c2.578,11.818-4.912,23.49-16.73,26.068c-1.066,0.232-2.148,0.385-3.238,0.457L278.623,726.37
	c-14.4,0.945-27.214-9.074-29.772-23.277l-99.58-552.837c-2.433-13.504,6.543-26.424,20.048-28.856
	c1.453-0.262,2.927-0.394,4.404-0.394h26.645c5.302,0,9.944,3.558,11.323,8.677l0,0c1.217,4.52,5.315,7.661,9.996,7.661H348.18
	C357.426,137.343,365.114,130.224,365.823,121.005L365.823,121.005z"/>
<rect x="189.246" y="259.25" fill="#2F2E41" width="255.125" height="1.257"/>
<rect x="196.787" y="300.096" fill="#2F2E41" width="257.639" height="1.256"/>
<polygon fill="#2F2E41" points="205.357,257.26 211.154,249.531 210.149,248.777 205.139,255.457 185.833,239.661 185.038,240.635 
	"/>
<polygon fill="#2F2E41" points="238.662,439.493 244.459,431.762 243.454,431.01 238.443,437.69 219.137,421.893 218.342,422.868 
	"/>
<rect x="215.608" y="442.425" transform="matrix(-0.9998 0.0212 -0.0212 -0.9998 707.6408 878.6162)" fill="#2F2E41" width="267.124" height="1.256"/>
<rect x="218.744" y="479.814" transform="matrix(-0.9997 0.0231 -0.0231 -0.9997 720.6498 952.5642)" fill="#2F2E41" width="272.165" height="1.256"/>
<path opacity="0.1" enable-background="new    " d="M324.035,583.813c0.012,32.969,26.749,59.686,59.718,59.674
	c32.953-0.012,59.664-26.723,59.675-59.674c0-0.748-0.013-1.49-0.044-2.232c-1.231-32.945-28.938-58.654-61.884-57.424
	C349.422,525.356,324.035,551.711,324.035,583.813z"/>
<path opacity="0.1" enable-background="new    " d="M329.69,607.063c0,0.748,0.013,1.488,0.044,2.23
	c14.077,29.818,49.66,42.578,79.478,28.502c20.888-9.861,34.213-30.885,34.216-53.982c0-0.748-0.013-1.49-0.044-2.232
	c-14.077-29.816-49.661-42.578-79.479-28.5C343.019,562.94,329.693,583.965,329.69,607.063L329.69,607.063z"/>
<circle fill="#2F2E41" cx="692.954" cy="234.917" r="36.8"/>
<polygon fill="#9F616A" points="732.655,696.065 739.655,726.065 722.655,726.065 715.655,692.065 "/>
<polygon fill="#9F616A" points="650.655,696.065 650.655,724.065 633.655,726.065 633.655,696.065 "/>
<path fill="#9F616A" d="M737.653,378.063c0,0-2,43-4,46s-20,46-20,46l-9-28c0,0,14-23,12-36s-0.738-28.997-0.738-28.997
	L737.653,378.063z"/>
<circle fill="#9F616A" cx="680.653" cy="246.064" r="28"/>
<path fill="#9F616A" d="M703.653,249.064c0,0-1,40,6,46c7,6-40,1-40,1s10-28,2-34S703.653,249.064,703.653,249.064z"/>
<path fill="#2F2E41" d="M666.653,294.064c0,0,6-11,14-10s34,3,35,5s4,9,6,11s17,5,18,17s-36,85-36,85s5,17,4,21s5,16,4,21
	s15,35,7,74v63c0,0,27,109,19,117s-35,3-40,0s-26-154-26-154l-10-51l-1,112c0,0,2,94-5,97s-34,4-36-2
	c-1.559-4.678-9.201-129.188-12.49-183.766c-1.139-18.838,0.342-37.744,4.402-56.176c4.162-18.877,10.205-41.057,17.088-50.059
	c13-17,21-71,21-71l-17-31c0,0,10-10,16-10S666.653,294.064,666.653,294.064z"/>
<path fill="#2F2E41" d="M733.653,310.063l5.273,3.59c0,0,3.727,64.41,0.727,68.41s-23.857,2.049-25.428-1.475
	C712.653,377.063,733.653,310.063,733.653,310.063z"/>
<path fill="#9F616A" d="M644.477,368.627c2.928,20.307,5.492,38.383-9.475,54.737c-15.041,16.551-32.006,31.246-50.533,43.773
	c-1.836,4.861-28.785,40.572-30.156,26.328s7.939-25.412,21.172-37.457c13.23-12.045,31.742-38.18,42.186-52.521
	c10.445-14.34,6.145-23.281,5.783-35.26C623.09,356.248,640.37,368.772,644.477,368.627z"/>
<path fill="#2F2E41" d="M633.653,707.864c0,0-1,11.199-4,14.199s-11,7-10,18s7.5,11.5,7.5,11.5l-0.5-2.5l3,1l0.5,1.5h28
	c0,0,0.5-10.5-0.5-15.5s-1-29-4-28s-11,2-13,6S632.653,716.663,633.653,707.864z"/>
<path fill="#2F2E41" d="M735.653,707.864c0,0,1,11.199,4,14.199s11,7,10,18s-7.5,11.5-7.5,11.5l0.5-2.5l-3,1l-0.5,1.5h-28
	c0,0-0.5-10.5,0.5-15.5s1-29,4-28s11,2,13,6S736.653,716.663,735.653,707.864z"/>
<path fill="#2F2E41" d="M646.653,305.063l-14,3c0,0,0,22-4,31s-11,30-8,31s31,15,33,7
	C655.653,369.063,660.653,305.063,646.653,305.063z"/>
<circle fill="#2F2E41" cx="732.821" cy="186.463" r="36.8"/>
<path fill="#2F2E41" d="M764.561,216.936c-16.473,11.906-39.479,8.204-51.385-8.269c-2.422-3.353-4.262-7.089-5.443-11.054
	c2.535,20.166,20.939,34.458,41.105,31.922c20.168-2.536,34.459-20.939,31.924-41.106c-0.252-2-0.668-3.976-1.242-5.908
	C781.2,195.865,775.463,209.061,764.561,216.936z"/>
<circle fill="#2F2E41" cx="702.766" cy="241.05" r="26.987"/>
<ellipse fill="#2F2E41" cx="680.073" cy="230.93" rx="23.92" ry="18.707"/>
<ellipse fill="#A0616A" cx="673.694" cy="250.098" rx="4.539" ry="8.032"/>
<circle fill="#F57E7E" cx="230.042" cy="56.577" r="14.417"/>
</svg>
