<?xml version="1.0" encoding="utf-8"?>
<!-- Generator: Adobe Illustrator 16.0.0, SVG Export Plug-In . SVG Version: 6.00 Build 0)  -->
<!DOCTYPE svg PUBLIC "-//W3C//DTD SVG 1.1//EN" "http://www.w3.org/Graphics/SVG/1.1/DTD/svg11.dtd">
<svg version="1.1" id="b6117b06-2b45-45bc-b789-4a82ab6612dd"
	 xmlns="http://www.w3.org/2000/svg" xmlns:xlink="http://www.w3.org/1999/xlink" x="0px" y="0px" width="1226.419px"
	 height="941.25px" viewBox="-87.248 -252.229 1226.419 941.25" enable-background="new -87.248 -252.229 1226.419 941.25"
	 xml:space="preserve">
<circle fill="#F57E7E" cx="1057.171" cy="661.63" r="25.63"/>
<circle fill="#438BCD" cx="-59.915" cy="-170.228" r="26.324"/>
<circle fill="#F57E7E" cx="772.671" cy="-76.148" r="76.148"/>
<circle fill="#438BCD" cx="106.292" cy="-25.417" r="126.879"/>
<title>progressive_app</title>
<circle fill="#F2F2F2" cx="246.827" cy="521.765" r="59.243"/>
<circle fill="#3361DC" cx="256.46" cy="513.095" r="59.243"/>
<rect x="304.171" y="447.543" fill="#3F3D56" width="733" height="2"/>
<path fill="#3F3D56" d="M683.792,18.652H423.623V13.29H305.652v5.362H44.41c-9.719,0-17.599,7.879-17.599,17.598l0,0v356.252
	c0,9.72,7.879,17.599,17.599,17.599h639.382c9.721,0,17.6-7.879,17.6-17.599V36.25C701.392,26.531,693.513,18.652,683.792,18.652
	L683.792,18.652z"/>
<rect x="50.406" y="49.753" fill="#3361DC" width="627.391" height="353.914"/>
<circle fill="#3361DC" cx="363.565" cy="33.667" r="6.435"/>
<polygon opacity="0.1" enable-background="new    " points="498.374,403.667 50.406,403.667 50.406,49.754 "/>
<circle fill="#F2F2F2" cx="148.574" cy="316.877" r="60.307"/>
<rect x="509.953" y="240.622" fill="#3F3D56" width="58.604" height="12.246"/>
<rect x="439.102" y="145.279" fill="#3F3D56" width="200.308" height="5.249"/>
<rect x="439.102" y="161.898" fill="#3F3D56" width="200.308" height="5.248"/>
<rect x="439.102" y="178.518" fill="#3F3D56" width="200.308" height="5.249"/>
<rect x="439.102" y="195.137" fill="#3F3D56" width="200.308" height="5.248"/>
<rect x="439.102" y="211.756" fill="#3F3D56" width="200.308" height="5.249"/>
<rect x="614.917" y="56.934" fill="#F2F2F2" width="24.492" height="24.492"/>
<path fill="#3F3D56" d="M650.781,92.797h-29.74v-29.74h29.74V92.797z M622.333,91.504h27.154V64.35h-27.154V91.504z"/>
<path fill="#3F3D56" d="M719.007,397.231h-61.23v-4.411c0-0.483-0.391-0.875-0.873-0.875l0,0H635.91
	c-0.482,0-0.875,0.392-0.875,0.875l0,0v4.411h-13.119v-4.411c0-0.483-0.393-0.875-0.875-0.875l0,0h-20.994
	c-0.482,0-0.873,0.392-0.873,0.875l0,0v4.411h-13.121v-4.411c0-0.483-0.393-0.875-0.875-0.875l0,0h-20.993
	c-0.483,0-0.875,0.392-0.875,0.875l0,0v4.411h-13.12v-4.411c0-0.483-0.392-0.875-0.875-0.875l0,0h-20.993
	c-0.482,0-0.874,0.392-0.874,0.875l0,0v4.411h-13.121v-4.411c0-0.483-0.392-0.875-0.875-0.875l0,0h-20.992
	c-0.483,0-0.875,0.392-0.875,0.875l0,0v4.411h-13.12v-4.411c0-0.483-0.393-0.875-0.875-0.875l0,0h-20.993
	c-0.483,0-0.875,0.392-0.875,0.875l0,0v4.411h-13.12v-4.411c0-0.483-0.392-0.875-0.875-0.875l0,0H277.281
	c-0.483,0-0.875,0.392-0.875,0.875l0,0v4.411h-13.121v-4.411c0-0.483-0.392-0.875-0.875-0.875h0h-20.993
	c-0.483,0-0.875,0.392-0.875,0.875l0,0v4.411h-13.121v-4.411c0-0.483-0.392-0.875-0.875-0.875l0,0h-20.993
	c-0.483,0-0.875,0.392-0.875,0.875l0,0v4.411H191.56v-4.411c0-0.483-0.391-0.875-0.875-0.875l0,0h-20.993
	c-0.483,0-0.875,0.392-0.875,0.875l0,0v4.411h-13.121v-4.411c0-0.483-0.392-0.875-0.875-0.875l0,0H133.83
	c-0.483,0-0.875,0.392-0.875,0.875l0,0v4.411h-13.121v-4.411c0-0.483-0.392-0.875-0.875-0.875l0,0H97.967
	c-0.483,0-0.875,0.392-0.875,0.875l0,0v4.411H83.972v-4.411c0-0.483-0.392-0.875-0.875-0.875c0,0,0,0,0,0H62.104
	c-0.483,0-0.875,0.392-0.875,0.875l0,0v4.411H20.993C9.399,397.231,0,406.631,0,418.225v9.492c0,11.595,9.399,20.993,20.993,20.993
	h698.015c11.594,0,20.992-9.398,20.992-20.993v-9.492C740,406.631,730.601,397.231,719.007,397.231z"/>
<path fill="#3F3D56" d="M163.171,354.543c-41.974,0-76-34.026-76-76s34.026-76,76-76s76,34.026,76,76
	C239.124,320.497,205.125,354.496,163.171,354.543z M163.171,204.543c-40.869,0-74,33.131-74,74c0,40.869,33.131,74,74,74
	s74-33.131,74-74C237.125,237.693,204.021,204.589,163.171,204.543z"/>
<rect x="586.171" y="32.543" fill="#3F3D56" width="255" height="2"/>
<rect x="406.171" y="560.543" fill="#3F3D56" width="733" height="2"/>
<rect x="192.671" y="652.543" fill="#3F3D56" width="255" height="2"/>
<rect x="471" y="550" fill="#3361DC" width="28" height="28"/>
<path fill="#3F3D56" d="M516,562h-34v-34h34V562z M483.479,560.521h31.043v-31.043h-31.043V560.521z"/>
<rect x="796" y="22" fill="#3361DC" width="28" height="28"/>
<path fill="#3F3D56" d="M841,34h-34V0h34V34z M808.478,32.521h31.043V1.479h-31.043V32.521z"/>
<rect x="1078" y="550" fill="#3361DC" width="28" height="28"/>
<path fill="#3F3D56" d="M1123,562h-34v-34h34V562z M1090.478,560.521h31.043v-31.043h-31.043V560.521z"/>
<path fill="#3F3D56" d="M1057.171,231.958h-2.379v-65.162c0-20.829-16.885-37.713-37.713-37.713l0,0H879.025
	c-20.828,0-37.713,16.885-37.713,37.713l0,0v357.482c0,20.828,16.885,37.714,37.713,37.714l0,0h138.055
	c20.828,0,37.713-16.886,37.713-37.714l0,0V278.341h2.379V231.958z"/>
<path fill="#3361DC" d="M1046.761,169.013v356.959c0.004,15.556-12.605,28.168-28.16,28.171H879.882
	c-15.557-0.003-28.164-12.615-28.16-28.171V169.013c0.002-15.552,12.607-28.158,28.16-28.16h16.83
	c-2.791,6.842,0.496,14.651,7.338,17.44c1.604,0.654,3.318,0.99,5.051,0.99h79.09c7.391,0,13.381-5.989,13.381-13.378
	c0-1.732-0.336-3.448-0.99-5.052h18.02C1034.154,140.855,1046.759,153.461,1046.761,169.013z"/>
<rect x="928.58" y="376.218" fill="#3F3D56" width="41.324" height="12.246"/>
<rect x="878.621" y="280.875" fill="#3F3D56" width="141.24" height="5.248"/>
<rect x="878.621" y="297.494" fill="#3F3D56" width="141.24" height="5.248"/>
<rect x="878.621" y="314.113" fill="#3F3D56" width="141.24" height="5.249"/>
<rect x="878.621" y="330.733" fill="#3F3D56" width="141.24" height="5.248"/>
<rect x="878.621" y="347.353" fill="#3F3D56" width="141.24" height="5.248"/>
<rect x="929.683" y="211.179" fill="#F2F2F2" width="24.492" height="24.492"/>
<path fill="#3F3D56" d="M939.06,217.303v29.74h29.74v-29.74H939.06z M967.509,245.753h-27.16v-27.16h27.16V245.753z"/>
<path opacity="0.1" enable-background="new    " d="M1046.761,487.854v38.12c0.004,15.555-12.605,28.167-28.16,28.17H879.882
	c-15.557-0.003-28.164-12.615-28.16-28.17v-192.21l116.869,92.329l2,1.58l21.74,17.17l2.029,1.61L1046.761,487.854z"/>
<circle fill="#F2F2F2" cx="937.242" cy="498.707" r="43.868"/>
<path fill="#3F3D56" d="M320.171,654.543c-48.049,0-87-38.951-87-87s38.951-87,87-87s87,38.951,87,87
	C407.117,615.569,368.198,654.489,320.171,654.543z M320.171,482.543c-46.944,0-85,38.056-85,85s38.056,85,85,85s85-38.056,85-85
	C405.118,520.621,367.094,482.597,320.171,482.543z"/>
<path fill="#3F3D56" d="M950.171,532.543c-30.375,0-55-24.624-55-55c0-30.375,24.625-55,55-55s55,24.625,55,55
	C1005.136,507.904,980.533,532.509,950.171,532.543z M950.171,424.543c-29.271,0-53,23.729-53,53c0,29.271,23.729,53,53,53
	s53-23.729,53-53l0,0C1003.138,448.286,979.429,424.576,950.171,424.543z"/>
</svg>
