<svg width="125" height="144" viewBox="0 0 125 144" fill="none" xmlns="http://www.w3.org/2000/svg">
<g clip-path="url(#clip0)">
<path d="M103.516 56.1523H115.234C119.28 56.1523 122.559 52.8736 122.559 48.8281V16.6016C122.559 12.5561 119.28 9.27734 115.234 9.27734H9.76562C5.72014 9.27734 2.44141 12.5561 2.44141 16.6016V48.8281C2.44141 52.8736 5.72014 56.1523 9.76562 56.1523H103.516Z" fill="#FAFAFA"/>
<path d="M92.3081 94.2154L112.594 114.501C114.874 116.781 118.569 116.781 120.849 114.501C123.129 112.222 123.129 108.526 120.849 106.247L100.563 85.9604L92.3081 94.2154Z" fill="#438BCD"/>
<path d="M104.981 69.3359C104.981 85.516 91.8646 98.6328 75.6846 98.6328C59.5045 98.6328 46.3877 85.516 46.3877 69.3359C46.3877 53.1559 59.5045 40.0391 75.6846 40.0391C91.8646 40.0391 104.981 53.1559 104.981 69.3359Z" fill="white"/>
<path d="M94.7275 69.3359C94.7275 79.8531 86.2017 88.3789 75.6846 88.3789C65.1674 88.3789 56.6416 79.8531 56.6416 69.3359C56.6416 58.8188 65.1674 50.293 75.6846 50.293C86.2017 50.293 94.7275 58.8188 94.7275 69.3359Z" fill="#438BCD"/>
<path d="M75.6846 47.8516C63.838 47.8516 54.2002 57.4894 54.2002 69.3359C54.2002 81.1825 63.838 90.8203 75.6846 90.8203C87.5311 90.8203 97.1689 81.1825 97.1689 69.3359C97.1689 57.4894 87.5311 47.8516 75.6846 47.8516ZM75.6846 85.9375C66.5302 85.9375 59.083 78.4903 59.083 69.3359C59.083 60.1816 66.5302 52.7344 75.6846 52.7344C84.8389 52.7344 92.2861 60.1816 92.2861 69.3359C92.2861 78.4903 84.8389 85.9375 75.6846 85.9375Z" fill="black"/>
<path d="M75.6846 58.3506C74.3361 58.3506 73.2432 59.4435 73.2432 60.792C73.2432 62.1405 74.3361 63.2334 75.6846 63.2334C79.0491 63.2334 81.7871 65.9714 81.7871 69.336C81.7871 70.6845 82.88 71.7774 84.2285 71.7774C85.577 71.7774 86.6699 70.6845 86.6699 69.336C86.6699 63.2782 81.7423 58.3506 75.6846 58.3506Z" fill="black"/>
<path d="M15.0498 25.2447C14.4299 24.0479 12.9575 23.5796 11.7597 24.1986C10.5618 24.8184 10.0936 26.2919 10.7135 27.4897L17.2853 40.185C17.7106 41.0071 18.5708 41.5097 19.4901 41.5039C20.4152 41.4896 21.2535 40.9537 21.654 40.1192L25.6328 31.8356L29.9539 40.185C30.3744 40.9956 31.2108 41.5039 32.1225 41.5039H32.1588C33.0848 41.4896 33.9221 40.9537 34.3236 40.1192L40.4204 27.4239C41.0041 26.2089 40.492 24.7498 39.277 24.1661C38.061 23.5825 36.6029 24.0946 36.0192 25.3105L32.0405 33.5942L27.7184 25.2447C27.2931 24.4227 26.4348 23.9182 25.5145 23.9258C24.5885 23.9401 23.7502 24.4761 23.3497 25.3105L19.3719 33.5942L15.0498 25.2447Z" fill="black"/>
<path d="M30.7588 11.7188C31.4016 11.7188 32.031 11.4574 32.4849 11.0035C32.9398 10.5495 33.2002 9.91917 33.2002 9.27734C33.2002 8.63552 32.9398 8.00514 32.4849 7.55119C32.031 7.09724 31.4016 6.83594 30.7588 6.83594C30.117 6.83594 29.4875 7.09724 29.0336 7.55119C28.5787 8.00514 28.3174 8.63552 28.3174 9.27734C28.3174 9.91917 28.5787 10.5495 29.0336 11.0035C29.4875 11.4574 30.117 11.7188 30.7588 11.7188Z" fill="black"/>
<path d="M125 48.8281V16.6016C125 11.2171 120.619 6.83594 115.234 6.83594H41.0128C39.6652 6.83594 38.5714 7.92885 38.5714 9.27734C38.5714 10.6258 39.6652 11.7188 41.0128 11.7188H115.234C117.927 11.7188 120.117 13.9093 120.117 16.6016V48.8281C120.117 51.5203 117.927 53.7109 115.234 53.7109H103.516C103.445 53.7109 103.376 53.7157 103.308 53.7214C99.5398 47.0819 93.4486 41.9283 86.1464 39.3715L89.7655 31.8365L94.0876 40.185C94.5072 40.9966 95.3436 41.5039 96.2553 41.5039H96.2925C97.2176 41.4896 98.0558 40.9536 98.4564 40.1192L104.553 27.4239C105.137 26.2089 104.625 24.7507 103.41 24.1671C102.195 23.5825 100.736 24.0946 100.152 25.3105L96.1742 33.5941L91.8522 25.2447C91.4268 24.4226 90.5695 23.9182 89.6473 23.9267C88.7213 23.9401 87.8839 24.4761 87.4834 25.3105L83.5047 33.5941L79.1836 25.2447C78.5637 24.0479 77.0903 23.5796 75.8924 24.1995C74.6946 24.8194 74.2273 26.2918 74.8463 27.4897L80.2498 37.9276C78.7592 37.7121 77.2352 37.5977 75.6855 37.5977C72.6843 37.5977 69.7784 38.0173 67.0242 38.7993L72.4878 27.4239C73.0715 26.2089 72.5594 24.7507 71.3434 24.1671C70.1284 23.5825 68.6693 24.0946 68.0866 25.3105L64.1079 33.5941L59.7858 25.2447C59.3605 24.4226 58.507 23.9182 57.5809 23.9267C56.6559 23.9401 55.8176 24.4761 55.4171 25.3105L51.4393 33.5941L47.1172 25.2447C46.4973 24.0479 45.0249 23.5796 43.8271 24.1995C42.6292 24.8194 42.161 26.2918 42.7809 27.4897L49.3526 40.185C49.778 41.007 50.6344 41.5096 51.5575 41.5039C52.4826 41.4896 53.3209 40.9536 53.7214 40.1192L57.7002 31.8365L62.0213 40.185C62.0937 40.3252 62.1824 40.452 62.2787 40.5731C56.2916 43.375 51.3172 47.9908 48.068 53.7109H9.76562C7.0734 53.7109 4.88281 51.5203 4.88281 48.8281V16.6016C4.88281 13.9093 7.0734 11.7188 9.76562 11.7188H19.7735C21.122 11.7188 22.2149 10.6258 22.2149 9.27734C22.2149 7.92885 21.122 6.83594 19.7735 6.83594H9.76562C4.38118 6.83594 0 11.2171 0 16.6016V48.8281C0 54.2135 4.38118 58.5938 9.76562 58.5938H45.8193C44.6081 61.9507 43.9463 65.567 43.9463 69.3359C43.9463 86.8368 58.1837 101.074 75.6845 101.074C81.4352 101.074 86.834 99.5369 91.4907 96.8513L110.868 116.228C112.481 117.842 114.601 118.649 116.721 118.649C118.841 118.649 120.961 117.842 122.575 116.228C125.803 113 125.803 107.748 122.575 104.52L114.962 96.9067C114.008 95.9539 112.462 95.953 111.509 96.9067C110.556 97.8603 110.556 99.4053 111.509 100.359L119.123 107.973C120.446 109.297 120.446 111.451 119.123 112.776C117.799 114.1 115.644 114.1 114.321 112.776L95.5858 94.0399C102.799 88.2177 107.423 79.3076 107.423 69.3359C107.423 65.567 106.761 61.9507 105.55 58.5938H115.234C120.62 58.5938 125 54.2126 125 48.8281ZM75.6845 96.1914C60.8768 96.1914 48.8291 84.1436 48.8291 69.3359C48.8291 54.5282 60.8768 42.4805 75.6845 42.4805C90.4922 42.4805 102.54 54.5282 102.54 69.3359C102.54 84.1436 90.4932 96.1914 75.6845 96.1914Z" fill="black"/>
<path d="M105.718 91.116C105.264 91.5699 105.002 92.1993 105.002 92.8421C105.002 93.4839 105.264 94.1133 105.718 94.5683C106.175 95.0222 106.802 95.2835 107.444 95.2835C108.086 95.2835 108.716 95.0222 109.17 94.5683C109.627 94.1133 109.885 93.4839 109.885 92.8421C109.885 92.1993 109.627 91.5699 109.17 91.116C108.716 90.662 108.089 90.4007 107.444 90.4007C106.802 90.4007 106.172 90.662 105.718 91.116Z" fill="black"/>
</g>
<ellipse rx="46.5" ry="5.5" transform="matrix(1 0 0 -1 74.5 138.5)" fill="#F57E7E"/>
<defs>
<clipPath id="clip0">
<rect width="125" height="125" fill="white"/>
</clipPath>
</defs>
</svg>
